<svg width="591" height="124" viewBox="0 0 591 124" fill="none" xmlns="http://www.w3.org/2000/svg">
<path d="M399.368 81.2328C399.368 75.6463 400.947 70.8493 404.104 66.8416C407.383 62.591 411.543 60.4658 416.583 60.4658C418.89 60.4658 421.016 61.073 422.959 62.2874C424.963 63.4411 426.541 65.0199 427.695 67.0238V46.6211H433.98V102H427.695V95.4418C426.481 97.567 424.932 99.2673 423.05 100.542C420.985 101.939 418.83 102.637 416.583 102.637C411.482 102.637 407.292 100.421 404.013 95.9883C400.917 91.8591 399.368 86.9406 399.368 81.2328ZM405.562 81.2328C405.562 85.4226 406.473 88.9748 408.294 91.8895C410.359 95.1685 413.122 96.808 416.583 96.808C420.044 96.808 422.807 95.1685 424.871 91.8895C426.754 88.9748 427.695 85.4226 427.695 81.2328C427.695 77.1644 426.754 73.6728 424.871 70.7582C422.746 67.6006 419.983 66.0218 416.583 66.0218C413.182 66.0218 410.45 67.6006 408.385 70.7582C406.503 73.6728 405.562 77.1644 405.562 81.2328Z" fill="white"/>
<path d="M439.738 81.2328C439.738 74.7355 441.438 69.5437 444.838 65.6575C448.239 61.7713 452.763 59.8282 458.41 59.8282C464.057 59.8282 468.611 61.7713 472.072 65.6575C475.473 69.5437 477.173 74.7355 477.173 81.2328C477.173 87.73 475.473 92.9218 472.072 96.808C468.611 100.694 464.057 102.637 458.41 102.637C452.763 102.637 448.239 100.694 444.838 96.808C441.438 92.9218 439.738 87.73 439.738 81.2328ZM445.931 81.2328C445.931 86.0298 447.055 89.8857 449.301 92.8003C451.609 95.715 454.645 97.1723 458.41 97.1723C462.175 97.1723 465.211 95.715 467.518 92.8003C469.765 89.8857 470.888 86.0298 470.888 81.2328C470.888 76.4357 469.765 72.6102 467.518 69.7563C465.211 66.8416 462.175 65.3843 458.41 65.3843C454.645 65.3843 451.609 66.8416 449.301 69.7563C447.055 72.6102 445.931 76.4357 445.931 81.2328Z" fill="white"/>
<path d="M480.661 81.2328C480.661 74.7355 482.3 69.5437 485.579 65.6575C488.858 61.7713 493.23 59.8282 498.695 59.8282C503.492 59.8282 507.469 61.2248 510.627 64.018C513.724 66.7505 515.485 70.4242 515.91 75.0391H509.716C509.473 72.1244 508.35 69.7866 506.346 68.0257C504.342 66.2647 501.792 65.3843 498.695 65.3843C495.112 65.3843 492.259 66.8416 490.133 69.7563C487.947 72.6102 486.854 76.4357 486.854 81.2328C486.854 86.0298 487.947 89.8857 490.133 92.8003C492.259 95.715 495.112 97.1723 498.695 97.1723C501.731 97.1723 504.251 96.2311 506.255 94.3488C508.259 92.4664 509.413 89.9464 509.716 86.7888H515.91C515.485 91.5859 513.693 95.4114 510.536 98.2653C507.439 101.18 503.492 102.637 498.695 102.637C493.23 102.637 488.858 100.694 485.579 96.808C482.3 92.9218 480.661 87.73 480.661 81.2328Z" fill="white"/>
<path d="M518.01 86.7888H524.204C524.204 89.7035 525.084 92.0413 526.845 93.8023C528.606 95.5632 530.944 96.4437 533.859 96.4437C536.834 96.4437 539.202 95.8972 540.963 94.8042C542.724 93.7112 543.605 92.2842 543.605 90.5233C543.605 88.0944 542.36 86.1816 539.87 84.785C537.806 83.6313 535.134 82.9026 531.855 82.599C528.394 82.2954 525.479 81.0202 523.111 78.7735C520.621 76.4661 519.376 73.7032 519.376 70.4849C519.376 67.0238 520.652 64.2609 523.202 62.1963C525.691 60.1318 529.031 59.0995 533.221 59.0995C537.836 59.0995 541.51 60.3747 544.242 62.925C547.035 65.4146 548.432 68.7543 548.432 72.9442H542.238C542.238 70.4546 541.419 68.4507 539.779 66.9327C538.14 65.4146 535.954 64.6556 533.221 64.6556C530.914 64.6556 529.062 65.1717 527.665 66.204C526.268 67.297 525.57 68.724 525.57 70.4849C525.57 72.6102 526.693 74.2193 528.94 75.3123C530.64 76.2232 533.009 76.8 536.045 77.0429C539.809 77.3465 543.028 78.6217 545.699 80.8684C548.493 83.2366 549.889 86.1209 549.889 89.5213C549.889 93.2861 548.493 96.2919 545.699 98.5386C542.906 100.785 539.202 101.909 534.587 101.909C529.547 101.909 525.54 100.542 522.564 97.8099C519.528 95.0167 518.01 91.343 518.01 86.7888Z" fill="white"/>
<path d="M179.735 122.09V30.5225H193.39V122.09H179.735ZM179.735 13.8556V0H193.39V13.8556H179.735Z" fill="white"/>
<path d="M141.982 32.1282V6.02344H155.636V32.1282H169.492V44.3774H155.636V102.41C155.636 104.017 156.239 105.423 157.444 106.627C158.649 107.832 160.054 108.435 161.661 108.435H169.492V122.089H157.243C153.093 122.089 149.478 120.617 146.399 117.672C143.454 114.593 141.982 110.978 141.982 106.828V44.3774H129.732V32.1282H141.982Z" fill="white"/>
<path d="M49.7856 97.5921C49.7856 89.8276 53.3332 83.4018 60.4284 78.3147C66.8542 73.7631 74.7526 71.0857 84.1235 70.2825C90.6832 69.747 95.6364 68.7429 98.9832 67.2704C103.669 65.3962 106.011 62.3171 106.011 58.0333C106.011 53.3478 104.204 49.3986 100.59 46.1857C96.9751 42.9728 92.6912 41.3664 87.738 41.3664C82.5171 41.3664 77.9655 42.9059 74.0832 45.9849C70.0671 49.1978 68.059 53.2139 68.059 58.0333V61.0454H54.2034V55.0212C54.2034 47.2567 57.684 40.8978 64.6453 35.9446C71.0711 31.393 78.7687 29.1172 87.738 29.1172C96.3058 29.1172 103.736 31.4599 110.028 36.1454C116.587 41.0986 119.867 47.3906 119.867 55.0212V100.805C119.867 103.349 120.804 105.49 122.678 107.231C124.419 108.971 126.561 109.841 129.104 109.841V122.09H123.682C120.068 122.09 116.788 121.153 113.843 119.279C110.898 117.271 108.823 114.661 107.618 111.448C104.807 115.598 100.857 118.677 95.7703 120.685C91.0848 122.559 85.9308 123.496 80.3082 123.496C71.0711 123.496 63.7082 121.153 58.2195 116.468C52.5969 111.782 49.7856 105.49 49.7856 97.5921ZM63.4405 97.5921C63.4405 101.474 65.1808 104.687 68.6614 107.231C71.8743 109.507 75.7566 110.645 80.3082 110.645C87.2695 110.645 93.2267 108.57 98.18 104.42C103.401 100.27 106.011 94.9816 106.011 88.5558V76.3066C102.263 79.3857 95.4356 81.3268 85.5292 82.13L81.7138 82.3308C76.7606 82.7324 72.5437 84.272 69.063 86.9494C65.3147 89.7607 63.4405 93.3082 63.4405 97.5921Z" fill="white"/>
<path d="M0 122.089V32.1279H13.6548V47.9916C15.6629 42.5029 19.2774 38.2191 24.4984 35.14C29.4516 32.061 35.0072 30.5215 41.1653 30.5215H47.1895V44.3771H41.1653C33.4008 44.3771 26.8411 47.4561 21.4863 53.6142C16.2653 59.5045 13.6548 66.5997 13.6548 74.8997V122.089H0Z" fill="white"/>
<path d="M366.955 29.2168V123.495H248.293L248.299 123.487C247.994 123.492 247.687 123.495 247.379 123.495C234.874 123.495 224.856 119.216 217.326 110.657C209.796 102.099 206.031 90.6643 206.031 76.3555C206.031 62.0469 209.796 50.6132 217.326 42.0547C224.856 33.4962 234.874 29.2169 247.379 29.2168C247.689 29.2168 247.998 29.2194 248.305 29.2246L248.293 29.2168H366.955ZM325.733 41.2803V55.7549H340.208V113.653H354.682V41.2803H325.733ZM247.379 41.4531C239.043 41.4532 232.319 44.6623 227.209 51.0811C222.234 57.3662 219.747 65.7912 219.747 76.3555C219.747 86.9199 222.234 95.4121 227.209 101.831C232.319 108.25 239.043 111.46 247.379 111.46C255.716 111.46 262.44 108.25 267.55 101.831C272.526 95.4121 275.013 86.9199 275.013 76.3555C275.013 65.7912 272.526 57.3662 267.55 51.0811C262.44 44.6622 255.716 41.4531 247.379 41.4531Z" fill="white"/>
<path d="M549.478 31.8447C562.403 31.8448 571.968 37.3463 578.373 45.5889C584.837 53.9082 588.155 65.1362 588.155 76.5C588.155 87.8638 584.837 99.0918 578.373 107.411C571.968 115.654 562.403 121.155 549.478 121.155H382.845V31.8447H549.478Z" stroke="white" stroke-width="5.68921"/>
</svg>
